<svg width="22" height="27" viewBox="0 0 22 27" fill="none" xmlns="http://www.w3.org/2000/svg">
<path d="M12.9343 0.00244141H3.27085C2.93689 0.00243254 2.6062 0.0682036 2.29766 0.195999C1.98911 0.323795 1.70877 0.511112 1.47262 0.747255C1.23647 0.983399 1.04915 1.26374 0.921354 1.57228C0.793554 1.88082 0.727779 2.21151 0.727783 2.54547V23.907C0.727774 24.241 0.793547 24.5716 0.921344 24.8802C1.04914 25.1887 1.23646 25.4691 1.47261 25.7052C1.70876 25.9414 1.9891 26.1287 2.29765 26.2565C2.60619 26.3843 2.93688 26.4501 3.27085 26.4501H18.529C18.8629 26.4501 19.1936 26.3843 19.5022 26.2565C19.8107 26.1287 20.091 25.9414 20.3272 25.7052C20.5633 25.4691 20.7506 25.1887 20.8784 24.8802C21.0062 24.5717 21.072 24.241 21.072 23.907V8.14017L12.9343 0.00244141ZM11.9171 9.15736V2.03686L19.0376 9.15736H11.9171Z" fill="#D42222"/>
</svg>
