<svg width="34" height="27" viewBox="0 0 34 27" fill="none" xmlns="http://www.w3.org/2000/svg">
<path d="M31.8387 0.590332H8.96733C8.75279 0.590332 8.54035 0.632589 8.34214 0.714691C8.14394 0.796793 7.96384 0.917131 7.81214 1.06883C7.66044 1.22054 7.54011 1.40064 7.45801 1.59885C7.37592 1.79705 7.33367 2.00949 7.33367 2.22403V7.12505H15.5022V3.85769H25.3039V20.1947H31.8387C32.0532 20.1947 32.2656 20.1524 32.4638 20.0703C32.6621 19.9882 32.8421 19.8679 32.9938 19.7162C33.1455 19.5645 33.2659 19.3844 33.348 19.1862C33.4301 18.988 33.4723 18.7755 33.4723 18.561V2.22403C33.4723 2.00949 33.4301 1.79705 33.348 1.59885C33.2659 1.40064 33.1455 1.22054 32.9938 1.06883C32.8421 0.917131 32.6621 0.796793 32.4638 0.714691C32.2656 0.632589 32.0532 0.590332 31.8387 0.590332ZM12.643 5.84873C12.643 5.97059 12.5946 6.08746 12.5084 6.17362C12.4222 6.25979 12.3054 6.3082 12.1835 6.3082H10.6519C10.5301 6.3082 10.4132 6.25979 10.3271 6.17362C10.2409 6.08746 10.1925 5.97059 10.1925 5.84873V4.31716C10.1925 4.1953 10.2409 4.07843 10.3271 3.99226C10.4132 3.9061 10.5301 3.85769 10.6519 3.85769H12.1835C12.3054 3.85769 12.4222 3.9061 12.5084 3.99226C12.5946 4.07843 12.643 4.1953 12.643 4.31716V5.84873ZM30.6134 16.4677C30.6134 16.528 30.6016 16.5878 30.5785 16.6435C30.5554 16.6993 30.5216 16.75 30.4789 16.7927C30.4362 16.8354 30.3856 16.8692 30.3298 16.8923C30.274 16.9154 30.2143 16.9273 30.1539 16.9273H28.6223C28.5005 16.9273 28.3836 16.8789 28.2975 16.7928C28.2113 16.7066 28.1629 16.5897 28.1629 16.4679V14.9361C28.1629 14.8142 28.2113 14.6974 28.2975 14.6112C28.3836 14.525 28.5005 14.4766 28.6223 14.4766H30.1539C30.2143 14.4766 30.274 14.4885 30.3298 14.5116C30.3855 14.5347 30.4361 14.5685 30.4788 14.6112C30.5215 14.6539 30.5553 14.7045 30.5784 14.7602C30.6015 14.816 30.6134 14.8757 30.6134 14.9361V16.4677ZM30.6134 11.1582C30.6134 11.2186 30.6015 11.2783 30.5784 11.334C30.5553 11.3898 30.5215 11.4404 30.4788 11.4831C30.4361 11.5258 30.3855 11.5596 30.3298 11.5827C30.274 11.6058 30.2143 11.6177 30.1539 11.6177H28.6223C28.5005 11.6177 28.3836 11.5693 28.2975 11.4831C28.2113 11.3969 28.1629 11.2801 28.1629 11.1582V9.62664C28.1629 9.50478 28.2113 9.38791 28.2975 9.30175C28.3836 9.21558 28.5005 9.16717 28.6223 9.16717H30.1539C30.2143 9.16717 30.274 9.17906 30.3298 9.20215C30.3855 9.22524 30.4361 9.25908 30.4788 9.30175C30.5215 9.34441 30.5553 9.39506 30.5784 9.45081C30.6015 9.50655 30.6134 9.5663 30.6134 9.62664V11.1582ZM30.6134 5.84877C30.6134 5.90911 30.6015 5.96886 30.5784 6.0246C30.5553 6.08035 30.5215 6.131 30.4788 6.17366C30.4361 6.21633 30.3855 6.25017 30.3298 6.27326C30.274 6.29636 30.2143 6.30824 30.1539 6.30824H28.6223C28.5005 6.30824 28.3836 6.25983 28.2975 6.17366C28.2113 6.0875 28.1629 5.97063 28.1629 5.84877V4.31716C28.1629 4.1953 28.2113 4.07843 28.2975 3.99226C28.3836 3.9061 28.5005 3.85769 28.6223 3.85769H30.1539C30.2758 3.85769 30.3926 3.9061 30.4788 3.99226C30.565 4.07843 30.6134 4.1953 30.6134 4.31716V5.84877ZM22.0366 8.75883H2.43249C1.99923 8.75883 1.58371 8.93094 1.27735 9.23729C0.970978 9.54364 0.798851 9.95915 0.798828 10.3924L0.798828 25.0955C0.798828 25.5288 0.970945 25.9443 1.27732 26.2507C1.58369 26.5571 1.99921 26.7292 2.43249 26.7292H22.0366C22.4699 26.7292 22.8854 26.5571 23.1918 26.2507C23.4981 25.9443 23.6702 25.5288 23.6702 25.0955V10.3924C23.6702 9.95915 23.4981 9.54364 23.1917 9.23729C22.8854 8.93094 22.4698 8.75883 22.0366 8.75883ZM5.69984 12.0261C6.02295 12.0261 6.3388 12.1219 6.60745 12.3014C6.87611 12.4809 7.0855 12.7361 7.20915 13.0346C7.33279 13.3331 7.36515 13.6616 7.30211 13.9785C7.23908 14.2954 7.08348 14.5865 6.85501 14.8149C6.62654 15.0434 6.33545 15.199 6.01855 15.262C5.70166 15.3251 5.37318 15.2927 5.07467 15.1691C4.77616 15.0454 4.52102 14.836 4.34151 14.5674C4.162 14.2987 4.06619 13.9829 4.06619 13.6598C4.06619 13.2265 4.2383 12.811 4.54467 12.5046C4.85104 12.1982 5.26657 12.0261 5.69984 12.0261ZM20.4029 23.4618H4.06619V21.8281L7.33354 18.5608L8.9672 20.1945L15.5019 13.6598L20.4029 18.5608V23.4618Z" fill="#006D00"/>
</svg>
