<svg width="31" height="28" viewBox="0 0 31 28" fill="none" xmlns="http://www.w3.org/2000/svg">
<path d="M4.62753 4.68759V0.875H7.16924V4.68759H10.9818V7.2293H7.16924V11.0419H4.62753V7.2293H0.814941V4.68759H4.62753ZM8.44008 12.3128V8.50018H12.2527V4.68759H21.1487L23.4744 7.2293H27.503C28.1765 7.23127 28.8218 7.49969 29.2981 7.97593C29.7743 8.45216 30.0427 9.09751 30.0447 9.77101V25.0213C30.0427 25.6948 29.7743 26.3401 29.2981 26.8163C28.8218 27.2926 28.1765 27.561 27.503 27.563H7.16924C6.49574 27.561 5.85039 27.2926 5.37415 26.8163C4.89792 26.3401 4.6295 25.6948 4.62753 25.0213V12.3125L8.44008 12.3128ZM17.3361 23.7505C20.8437 23.7505 23.6904 20.9038 23.6904 17.3962C23.6904 13.8886 20.8437 11.0419 17.3361 11.0419C13.8285 11.0419 10.9818 13.8886 10.9818 17.3962C10.9818 20.9038 13.8285 23.7505 17.3361 23.7505ZM13.2694 17.3962C13.2694 18.2005 13.5079 18.9868 13.9547 19.6556C14.4016 20.3243 15.0367 20.8456 15.7799 21.1534C16.523 21.4612 17.3407 21.5417 18.1295 21.3848C18.9184 21.2279 19.643 20.8406 20.2118 20.2718C20.7805 19.7031 21.1678 18.9784 21.3248 18.1896C21.4817 17.4007 21.4011 16.583 21.0933 15.8399C20.7855 15.0968 20.2643 14.4616 19.5955 14.0148C18.9267 13.5679 18.1404 13.3294 17.3361 13.3294C16.8019 13.3289 16.2728 13.4337 15.7791 13.6378C15.2855 13.842 14.8369 14.1415 14.4592 14.5193C14.0814 14.897 13.7819 15.3456 13.5778 15.8392C13.3736 16.3329 13.2688 16.862 13.2694 17.3962Z" fill="#FFB509"/>
</svg>
